<svg width="20" height="18" viewBox="0 0 20 18" fill="none" xmlns="http://www.w3.org/2000/svg">
<path d="M6.00001 10C4.14001 10 2.59001 11.28 2.14001 13H1.52588e-05V15H2.14001C2.59001 16.72 4.14001 18 6.00001 18C7.86001 18 9.41001 16.72 9.86001 15H20V13H9.86001C9.41001 11.28 7.86001 10 6.00001 10ZM6.00001 16C4.90001 16 4.00001 15.1 4.00001 14C4.00001 12.9 4.90001 12 6.00001 12C7.10001 12 8.00001 12.9 8.00001 14C8.00001 15.1 7.10001 16 6.00001 16ZM17.86 3C17.41 1.28 15.86 0 14 0C12.14 0 10.59 1.28 10.14 3H1.52588e-05V5H10.14C10.59 6.72 12.14 8 14 8C15.86 8 17.41 6.72 17.86 5H20V3H17.86ZM14 6C12.9 6 12 5.1 12 4C12 2.9 12.9 2 14 2C15.1 2 16 2.9 16 4C16 5.1 15.1 6 14 6Z" fill="#1F1F1F"/>
</svg>
