<svg width="105" height="104" viewBox="0 0 105 104" fill="none" xmlns="http://www.w3.org/2000/svg">
<rect x="0.5" width="104" height="104" rx="52" fill="url(#paint0_linear_1511_2873)" fill-opacity="0.2"/>
<rect x="8.5" y="8" width="88" height="88" rx="44" fill="url(#paint1_linear_1511_2873)"/>
<path d="M34.3667 76C32.9 76 31.6449 75.4782 30.6013 74.4346C29.5578 73.3911 29.0351 72.1351 29.0333 70.6666V33.3333C29.0333 31.8667 29.556 30.6116 30.6013 29.568C31.6467 28.5244 32.9018 28.0018 34.3667 28H50.3666C51.1222 28 51.756 28.256 52.268 28.768C52.78 29.28 53.0351 29.9129 53.0333 30.6667C53.0315 31.4204 52.7755 32.0542 52.2653 32.568C51.7551 33.0818 51.1222 33.3369 50.3666 33.3333H34.3667V70.6666H50.3666C51.1222 70.6666 51.756 70.9226 52.268 71.4346C52.78 71.9466 53.0351 72.5795 53.0333 73.3333C53.0315 74.0871 52.7755 74.7209 52.2653 75.2346C51.7551 75.7484 51.1222 76.0035 50.3666 76H34.3667ZM66.8333 54.6666H47.7C46.9444 54.6666 46.3115 54.4106 45.8013 53.8986C45.2911 53.3866 45.0351 52.7538 45.0333 52C45.0315 51.2462 45.2875 50.6133 45.8013 50.1013C46.3151 49.5893 46.948 49.3333 47.7 49.3333H66.8333L61.8333 44.3333C61.3444 43.8444 61.1 43.2444 61.1 42.5333C61.1 41.8222 61.3444 41.2 61.8333 40.6667C62.3222 40.1333 62.9444 39.8551 63.7 39.832C64.4555 39.8089 65.1 40.0649 65.6333 40.6L75.1666 50.1333C75.7 50.6666 75.9666 51.2889 75.9666 52C75.9666 52.7111 75.7 53.3333 75.1666 53.8666L65.6333 63.4C65.1 63.9333 64.4671 64.1893 63.7346 64.168C63.0022 64.1466 62.3684 63.8684 61.8333 63.3333C61.3444 62.8 61.1115 62.1671 61.1346 61.4346C61.1577 60.7022 61.4129 60.0906 61.9 59.6L66.8333 54.6666Z" fill="white" fill-opacity="0.8"/>
<defs>
<linearGradient id="paint0_linear_1511_2873" x1="23.9898" y1="11.3961" x2="77.5773" y2="96.5761" gradientUnits="userSpaceOnUse">
<stop stop-color="#ED6EA0"/>
<stop offset="1" stop-color="#EC8A6D"/>
</linearGradient>
<linearGradient id="paint1_linear_1511_2873" x1="27.5" y1="15.5" x2="75.5" y2="90.5" gradientUnits="userSpaceOnUse">
<stop stop-color="#ED6EA0"/>
<stop offset="1" stop-color="#EC8A6C"/>
</linearGradient>
</defs>
</svg>
