<svg width="22" height="17" viewBox="0 0 22 17" fill="none" xmlns="http://www.w3.org/2000/svg">
<path d="M15.3333 14.4167V16.5833H0.166626V14.4167C0.166626 14.4167 0.166626 10.0833 7.74996 10.0833C15.3333 10.0833 15.3333 14.4167 15.3333 14.4167ZM11.5416 4.12501C11.5416 3.37509 11.3192 2.64201 10.9026 2.01847C10.486 1.39493 9.8938 0.908945 9.20097 0.621963C8.50813 0.334981 7.74575 0.259893 7.01024 0.406195C6.27473 0.552498 5.59912 0.913619 5.06885 1.44389C4.53857 1.97417 4.17745 2.64978 4.03115 3.38529C3.88485 4.1208 3.95993 4.88318 4.24692 5.57601C4.5339 6.26885 5.01989 6.86103 5.64342 7.27766C6.26696 7.69429 7.00004 7.91667 7.74996 7.91667C8.75557 7.91667 9.72 7.51719 10.4311 6.80612C11.1421 6.09504 11.5416 5.13062 11.5416 4.12501ZM15.2683 10.0833C15.9343 10.5987 16.4792 11.2538 16.8648 12.0025C17.2503 12.7511 17.4671 13.5752 17.5 14.4167V16.5833H21.8333V14.4167C21.8333 14.4167 21.8333 10.4842 15.2683 10.0833ZM14.25 0.333339C13.5043 0.329187 12.775 0.552125 12.1591 0.972506C12.8172 1.89197 13.171 2.99432 13.171 4.12501C13.171 5.2557 12.8172 6.35804 12.1591 7.27751C12.775 7.69789 13.5043 7.92082 14.25 7.91667C15.2556 7.91667 16.22 7.51719 16.9311 6.80612C17.6421 6.09504 18.0416 5.13062 18.0416 4.12501C18.0416 3.11939 17.6421 2.15497 16.9311 1.44389C16.22 0.732818 15.2556 0.333339 14.25 0.333339Z" fill="#00DB49"/>
</svg>
