<svg width="328" height="149" viewBox="0 0 328 149" fill="none" xmlns="http://www.w3.org/2000/svg">
<path d="M301.948 69.4469L236.132 135.287L231.562 133.459L184.038 103.3L230.663 56.6438L204.181 51.8821L311.108 0L328 74.2772L301.948 69.4469Z" fill="url(#paint0_linear_1505_2613)"/>
<path d="M144.716 135.377H236.12L190.412 91.5088L184.014 94.2506L144.716 135.377Z" fill="url(#paint1_linear_1505_2613)"/>
<path d="M51.4375 148.163H141.065L190.462 91.5065H108.255L51.4375 148.163Z" fill="url(#paint2_linear_1505_2613)"/>
<path d="M5.59703 54.6912C5.64922 54.2215 5.83187 53.817 6.14499 53.4778C6.45811 53.1386 6.9017 52.969 7.47576 52.969H21.0182C21.9837 52.969 22.6099 53.4648 22.8969 54.4563L33.543 89.9955L44.2674 54.4563C44.6327 53.4648 45.2981 52.969 46.2636 52.969H59.6495C60.1192 52.969 60.5367 53.1386 60.902 53.4778C61.2934 53.7909 61.5152 54.1954 61.5673 54.6912C62.4806 63.876 63.4069 72.9957 64.3463 82.0501C65.3117 91.0784 66.2511 100.185 67.1644 109.37V109.566C67.1644 110.583 66.5903 111.092 65.4422 111.092H54.3656C53.1653 111.092 52.539 110.518 52.4868 109.37L49.0817 79.1146L40.2751 109.566C40.2229 109.826 40.0273 110.14 39.688 110.505C39.3749 110.87 39.0618 111.053 38.7487 111.053H28.4548C28.1417 111.053 27.8025 110.883 27.4372 110.544C27.098 110.179 26.9153 109.853 26.8892 109.566L18.0827 79.1928L14.6775 109.37C14.6253 110.518 13.9861 111.092 12.7597 111.092H1.68302C0.561008 111.092 0 110.518 0 109.37L5.59703 54.6912Z" fill="#FF4D00"/>
<path d="M76.7879 54.7694C76.7879 54.2215 76.9315 53.7909 77.2185 53.4778C77.5316 53.1386 77.9621 52.969 78.5101 52.969H117.376C117.95 52.969 118.394 53.1386 118.707 53.4778C119.02 53.817 119.177 54.2737 119.177 54.8477V64.5545C119.177 64.998 119.02 65.4286 118.707 65.8461C118.394 66.2375 117.937 66.4332 117.337 66.4332H91.9743V76.1008H111.544C112.04 76.1008 112.445 76.2182 112.758 76.453C113.097 76.6879 113.266 77.0793 113.266 77.6272V86.0815C113.266 86.4468 113.123 86.7991 112.836 87.1383C112.549 87.4775 112.131 87.6471 111.583 87.6471H91.9743V97.6278H118.276C119.451 97.6278 120.038 98.228 120.038 99.4283V109.292C120.038 109.553 119.933 109.787 119.725 109.996C119.62 110.727 119.085 111.092 118.12 111.092H78.5101C77.9882 111.092 77.5707 110.962 77.2576 110.701C76.9445 110.414 76.7879 109.983 76.7879 109.409V54.7694Z" fill="#FF4D00"/>
<path d="M125.659 54.6912C125.659 54.1693 125.828 53.7518 126.167 53.4387C126.533 53.1256 126.976 52.969 127.498 52.969H169.652C170.122 52.969 170.539 53.1125 170.905 53.3995C171.27 53.6866 171.479 54.1171 171.531 54.6912V64.437C171.531 64.9067 171.361 65.3634 171.022 65.8069C170.709 66.2244 170.252 66.4332 169.652 66.4332H156.149V109.252C156.149 109.722 155.979 110.153 155.64 110.544C155.301 110.909 154.857 111.092 154.309 111.092H142.802C142.358 111.092 141.941 110.922 141.549 110.583C141.158 110.218 140.962 109.774 140.962 109.252V66.4332H127.498C126.976 66.4332 126.533 66.2636 126.167 65.9244C125.828 65.5851 125.659 65.0894 125.659 64.437V54.6912Z" fill="#FF4D00"/>
<path d="M186.191 54.4955C186.217 54.3389 186.295 54.1693 186.425 53.9866C186.582 53.804 186.765 53.6344 186.973 53.4778C187.182 53.3213 187.404 53.2038 187.639 53.1256C187.874 53.0212 188.095 52.969 188.304 52.969H198.324C198.768 52.969 199.146 53.1125 199.459 53.3995C199.772 53.6605 200.007 53.8953 200.164 54.1041L201.142 56.335L221.691 109.331C221.899 109.853 221.86 110.283 221.573 110.622C221.286 110.935 220.79 111.092 220.086 111.092H208.853C208.253 111.092 207.783 110.988 207.444 110.779C207.131 110.544 206.883 110.166 206.7 109.644C206.178 108.313 205.669 106.995 205.174 105.691C204.678 104.36 204.182 103.029 203.686 101.698H182.903C182.407 103.029 181.898 104.36 181.376 105.691C180.881 106.995 180.385 108.313 179.889 109.644C179.55 110.609 178.884 111.092 177.893 111.092H166.347C165.851 111.092 165.433 110.962 165.094 110.701C164.781 110.44 164.729 110.048 164.938 109.526L186.191 54.4955ZM193.314 71.2474C192.818 72.5782 192.309 74.0133 191.788 75.5528C191.292 77.0923 190.796 78.6449 190.3 80.2105C189.805 81.7761 189.296 83.3287 188.774 84.8682C188.278 86.3816 187.782 87.8037 187.286 89.1344H199.302L193.314 71.2474Z" fill="#FF4D00"/>
<path d="M5.77612 7.64871C5.77612 7.31605 5.86325 7.05466 6.0375 6.86457C6.2276 6.67447 6.44938 6.5715 6.70284 6.55566H29.443C29.8074 6.55566 30.0767 6.65863 30.2509 6.86457C30.441 7.0705 30.5361 7.34773 30.5361 7.69624V13.5892C30.5361 13.8585 30.441 14.1199 30.2509 14.3734C30.0609 14.611 29.7836 14.7298 29.4193 14.7298H14.972V22.0722H25.6411C25.9421 22.0722 26.1956 22.1594 26.4015 22.3336C26.6075 22.492 26.7104 22.7534 26.7104 23.1178V28.7969C26.7104 29.0662 26.6154 29.3276 26.4253 29.581C26.251 29.8186 26.0055 29.9374 25.6887 29.9374H14.972V40.8204C14.972 41.5016 14.6077 41.8422 13.879 41.8422H6.63155C6.06127 41.763 5.77612 41.4303 5.77612 40.8442V7.64871Z" fill="#3EC100"/>
<path d="M86.8884 32.5513C87.1101 32.3928 87.3161 32.2978 87.5062 32.2661C87.7121 32.2186 87.8705 32.1948 87.9814 32.1948C88.2507 32.1948 88.4962 32.2503 88.718 32.3612C88.9398 32.4721 89.1695 32.7097 89.4071 33.074L92.0685 37.0898C92.1477 37.2165 92.2189 37.3591 92.2823 37.5175C92.3615 37.6759 92.4011 37.8027 92.4011 37.8977C92.4011 38.2621 92.2823 38.563 92.0447 38.8007C91.8229 39.0224 91.5774 39.2205 91.3081 39.3947C90.0091 40.2977 88.5834 41.0264 87.0309 41.5808C85.4943 42.1194 83.8627 42.3887 82.136 42.3887C80.7102 42.3887 79.332 42.2065 78.0014 41.8422C76.6865 41.4778 75.4588 40.963 74.3183 40.2977C73.1777 39.6165 72.1322 38.8086 71.1817 37.8739C70.2312 36.9235 69.4233 35.87 68.758 34.7136C68.0926 33.5572 67.5699 32.3136 67.1897 30.983C66.8253 29.6365 66.6432 28.2345 66.6432 26.7771C66.6432 25.3197 66.8253 23.9177 67.1897 22.5712C67.5699 21.2247 68.0926 19.9812 68.758 18.8406C69.4233 17.6842 70.2312 16.6387 71.1817 15.704C72.1322 14.7535 73.1777 13.9456 74.3183 13.2803C75.4588 12.615 76.6865 12.1001 78.0014 11.7358C79.332 11.3714 80.7102 11.1892 82.136 11.1892C83.8627 11.1892 85.4547 11.4189 86.9121 11.8783C88.3854 12.3377 89.7635 13.0189 91.0467 13.9219L90.9754 13.8506C91.3239 14.0565 91.6011 14.3021 91.8071 14.5872C92.013 14.8565 92.116 15.1971 92.116 15.609C92.116 15.8941 92.0209 16.1872 91.8308 16.4882L89.716 20.0762C89.2725 20.8524 88.7339 21.2406 88.1002 21.2406C87.9576 21.2406 87.7834 21.2089 87.5774 21.1455C87.3715 21.0663 87.1418 20.9396 86.8884 20.7653C86.1913 20.3059 85.4389 19.9337 84.631 19.6485C83.8389 19.3475 82.9914 19.197 82.0884 19.197C81.0904 19.197 80.1716 19.403 79.332 19.8148C78.4924 20.2109 77.7717 20.7574 77.1697 21.4544C76.5836 22.1514 76.1242 22.9593 75.7915 23.8781C75.4588 24.7969 75.2925 25.7633 75.2925 26.7771C75.2925 27.8226 75.4588 28.8048 75.7915 29.7236C76.1242 30.6265 76.5836 31.4107 77.1697 32.076C77.7717 32.7414 78.4924 33.272 79.332 33.6681C80.1716 34.0483 81.0904 34.2384 82.0884 34.2384C82.9914 34.2384 83.8389 34.0799 84.631 33.7631C85.423 33.4463 86.1755 33.0423 86.8884 32.5513Z" fill="#3EC100"/>
<path d="M143.133 12.0684C143.339 11.8942 143.552 11.7833 143.774 11.7358C144.012 11.6882 144.234 11.6645 144.439 11.6645H148.028C148.313 11.6645 148.558 11.7199 148.764 11.8308C148.97 11.9259 149.144 12.0605 149.287 12.2348C149.429 12.409 149.54 12.607 149.62 12.8288C149.715 13.0506 149.802 13.2803 149.881 13.5179L150.618 16.5595C150.855 16.0684 151.196 15.5139 151.639 14.8961C152.099 14.2625 152.677 13.6763 153.374 13.1377C154.071 12.5833 154.895 12.1239 155.845 11.7595C156.812 11.3793 157.928 11.1892 159.196 11.1892C161.002 11.1892 162.641 11.5378 164.114 12.2348C165.588 12.9318 166.839 13.8823 167.869 15.0862C168.914 16.2901 169.722 17.7 170.292 19.3158C170.863 20.9158 171.148 22.6267 171.148 24.4484V40.0125C171.148 40.6145 171.013 41.0739 170.744 41.3907C170.49 41.6917 170.079 41.8422 169.508 41.8422H164.019C163.338 41.8422 162.871 41.7313 162.617 41.5095C162.364 41.2719 162.237 40.8204 162.237 40.1551V24.686C162.237 24.0049 162.079 23.3633 161.762 22.7613C161.461 22.1435 161.057 21.6049 160.55 21.1455C160.043 20.6703 159.465 20.298 158.815 20.0287C158.182 19.7594 157.532 19.6247 156.867 19.6247C156.297 19.6247 155.711 19.7515 155.109 20.0049C154.522 20.2584 153.976 20.6148 153.469 21.0742C152.978 21.5178 152.558 22.0485 152.21 22.6663C151.877 23.2682 151.687 23.9257 151.639 24.6385V40.0838C151.639 40.3531 151.584 40.6224 151.473 40.8917C151.378 41.161 151.227 41.367 151.022 41.5095C150.816 41.6363 150.618 41.7234 150.427 41.7709C150.253 41.8184 150.047 41.8422 149.81 41.8422H144.439C143.758 41.8422 143.267 41.6759 142.966 41.3432C142.665 41.0105 142.515 40.567 142.515 40.0125V13.4229C142.515 13.1219 142.578 12.8447 142.705 12.5912C142.847 12.3377 143.038 12.1397 143.275 11.9972L143.133 12.0684Z" fill="#3EC100"/>
<path d="M206.025 40.0838C206.025 40.3531 205.978 40.6145 205.883 40.8679C205.788 41.1056 205.629 41.2957 205.407 41.4382C205.233 41.6125 205.027 41.7234 204.79 41.7709C204.552 41.8184 204.346 41.8422 204.172 41.8422H199.491C199.158 41.8422 198.889 41.8026 198.683 41.7234C198.477 41.6283 198.311 41.5016 198.184 41.3432C198.057 41.1848 197.946 40.9947 197.851 40.7729C197.772 40.5353 197.685 40.2818 197.59 40.0125L196.901 38.2304C196.473 38.6581 196.006 39.1175 195.499 39.6086C194.992 40.0838 194.429 40.5274 193.812 40.9392C193.21 41.3511 192.552 41.6917 191.839 41.961C191.127 42.2461 190.366 42.3887 189.558 42.3887C188.117 42.3887 186.731 42.2065 185.4 41.8422C184.085 41.4778 182.849 40.963 181.693 40.2977C180.552 39.6165 179.515 38.8086 178.58 37.8739C177.646 36.9235 176.838 35.87 176.156 34.7136C175.491 33.5572 174.976 32.3136 174.612 30.983C174.248 29.6365 174.065 28.2345 174.065 26.7771C174.065 24.5752 174.469 22.5316 175.277 20.6465C176.085 18.7456 177.186 17.0981 178.58 15.704C179.974 14.2941 181.614 13.1932 183.499 12.4011C185.384 11.5932 187.404 11.1892 189.558 11.1892C190.54 11.1892 191.443 11.3397 192.267 11.6407C193.091 11.9259 193.835 12.3061 194.501 12.7813C195.182 13.2565 195.792 13.7951 196.33 14.3971C196.885 14.9991 197.376 15.609 197.804 16.2268L198.73 13.3516C198.889 12.9556 199.016 12.6387 199.111 12.4011C199.221 12.1476 199.332 11.9655 199.443 11.8546C199.57 11.7279 199.72 11.6486 199.895 11.617C200.069 11.5694 200.314 11.5457 200.631 11.5457H204.172C204.346 11.5457 204.552 11.5694 204.79 11.617C205.027 11.6645 205.233 11.7754 205.407 11.9496C205.629 12.1239 205.788 12.3219 205.883 12.5437C205.978 12.7655 206.025 13.0189 206.025 13.3041V40.0838ZM182.62 26.7771C182.62 27.8226 182.778 28.8048 183.095 29.7236C183.428 30.6265 183.895 31.4107 184.497 32.076C185.099 32.7414 185.82 33.272 186.659 33.6681C187.515 34.0483 188.457 34.2384 189.487 34.2384C190.548 34.2384 191.53 34.0483 192.433 33.6681C193.352 33.272 194.144 32.7414 194.81 32.076C195.491 31.4107 196.022 30.6265 196.402 29.7236C196.782 28.8048 196.972 27.8226 196.972 26.7771C196.972 25.7633 196.782 24.7969 196.402 23.8781C196.022 22.9593 195.491 22.1514 194.81 21.4544C194.144 20.7574 193.352 20.2109 192.433 19.8148C191.53 19.403 190.548 19.197 189.487 19.197C188.457 19.197 187.515 19.403 186.659 19.8148C185.82 20.2109 185.099 20.7574 184.497 21.4544C183.895 22.1514 183.428 22.9593 183.095 23.8781C182.778 24.7969 182.62 25.7633 182.62 26.7771Z" fill="#3EC100"/>
<path fill-rule="evenodd" clip-rule="evenodd" d="M110.084 17.939C105.182 17.939 101.209 21.9126 101.209 26.8142C101.209 31.7159 105.182 35.6894 110.084 35.6894C114.986 35.6894 118.959 31.7159 118.959 26.8142C118.959 21.9126 114.986 17.939 110.084 17.939ZM94.1953 26.8142C94.1953 18.0391 101.309 10.9254 110.084 10.9254C118.859 10.9254 125.973 18.0391 125.973 26.8142C125.973 35.5894 118.859 42.7031 110.084 42.7031C101.309 42.7031 94.1953 35.5894 94.1953 26.8142Z" fill="#3EC100"/>
<path fill-rule="evenodd" clip-rule="evenodd" d="M47.938 17.939C43.0364 17.939 39.0628 21.9126 39.0628 26.8142C39.0628 31.7159 43.0364 35.6894 47.938 35.6894C52.8397 35.6894 56.8132 31.7159 56.8132 26.8142C56.8132 21.9126 52.8397 17.939 47.938 17.939ZM32.0492 26.8142C32.0492 18.0391 39.1629 10.9254 47.938 10.9254C56.7132 10.9254 63.8268 18.0391 63.8268 26.8142C63.8268 35.5894 56.7132 42.7031 47.938 42.7031C39.1629 42.7031 32.0492 35.5894 32.0492 26.8142Z" fill="#F4CA07"/>
<path d="M70.8848 45.8177L62.9793 37.87C62.0321 39.4848 59.8498 41.6026 58.4522 42.4034L66.386 50.3542L70.8848 45.8177Z" fill="#F4CA07" stroke="#F4CA07" stroke-width="0.913922"/>
<path fill-rule="evenodd" clip-rule="evenodd" d="M67.3892 51.9173C67.9718 52.3055 68.6716 52.5318 69.4242 52.5318C71.4538 52.5318 73.0991 50.8865 73.0991 48.8569C73.0991 48.0995 72.87 47.3957 72.4774 46.8109L67.3892 51.9173Z" fill="#3EC100"/>
<defs>
<linearGradient id="paint0_linear_1505_2613" x1="248.417" y1="55.8553" x2="207.479" y2="169.869" gradientUnits="userSpaceOnUse">
<stop stop-color="#3EC100"/>
<stop offset="1" stop-color="#267500"/>
</linearGradient>
<linearGradient id="paint1_linear_1505_2613" x1="190.418" y1="91.5088" x2="190.418" y2="135.377" gradientUnits="userSpaceOnUse">
<stop stop-color="#46DA00"/>
<stop offset="1" stop-color="#3EC100"/>
</linearGradient>
<linearGradient id="paint2_linear_1505_2613" x1="120.95" y1="106.831" x2="120.95" y2="144.646" gradientUnits="userSpaceOnUse">
<stop stop-color="#35A600"/>
<stop offset="1" stop-color="#3EC100"/>
</linearGradient>
</defs>
</svg>
